<svg version="1.1" id="goldbar" xmlns="http://www.w3.org/2000/svg" xmlns:xlink="http://www.w3.org/1999/xlink" x="0px" y="0px"
	 width="64.304px" height="100.678px" viewBox="0 0 64.304 100.678" enable-background="new 0 0 64.304 100.678"
	 xml:space="preserve">
<g>
	<path fill="#FFEAAE" stroke="#BDB287" stroke-width="0.7166" d="M63.945,90.288c0,5.518-4.516,10.031-10.032,10.031H10.391
		c-5.518,0-10.032-4.514-10.032-10.031V10.39c0-5.518,4.515-10.031,10.032-10.031h43.522c5.517,0,10.032,4.514,10.032,10.031V90.288
		z"/>
	<path fill="#FFEAAE" stroke="#614300" stroke-width="2.8663" d="M61.415,87.071c0,5.079-4.155,9.234-9.233,9.234H12.123
		c-5.079,0-9.234-4.155-9.234-9.234V13.533c0-5.079,4.155-9.233,9.234-9.233h40.059c5.078,0,9.233,4.154,9.233,9.233V87.071z"/>
	<path fill="#FDE3A8" stroke="#FFFDAC" stroke-width="1.4331" d="M61.415,87.071c0,5.079-4.155,9.234-9.233,9.234H12.123
		c-5.079,0-9.234-4.155-9.234-9.234V13.533c0-5.079,4.155-9.233,9.234-9.233h40.059c5.078,0,9.233,4.154,9.233,9.233V87.071z"/>
	<linearGradient id="SVGID_1_" gradientUnits="userSpaceOnUse" x1="32.0581" y1="65.1816" x2="32.0581" y2="7.8164">
		<stop  offset="0" style="stop-color:#FEE4A9"/>
		<stop  offset="1" style="stop-color:#C7AB5A"/>
	</linearGradient>
	<path fill="url(#SVGID_1_)" d="M58.688,85.583c0,4.784-3.782,8.698-8.403,8.698H13.832c-4.621,0-8.403-3.914-8.403-8.698V16.309
		c0-4.784,3.782-8.698,8.403-8.698h36.452c4.621,0,8.403,3.914,8.403,8.698V85.583z"/>
</g>
<g>
	<g>
		<linearGradient id="SVGID_2_" gradientUnits="userSpaceOnUse" x1="32.54" y1="86.6748" x2="32.04" y2="38.1748">
			<stop  offset="0" style="stop-color:#FEE4A9"/>
			<stop  offset="1" style="stop-color:#C7AB5A"/>
		</linearGradient>


	
	</g>
</g>
</svg>