<?xml version="1.0" standalone="no"?>
<!DOCTYPE svg PUBLIC "-//W3C//DTD SVG 20010904//EN"
 "http://www.w3.org/TR/2001/REC-SVG-20010904/DTD/svg10.dtd">
<svg version="1.0" xmlns="http://www.w3.org/2000/svg"
 width="1024.000000pt" height="1024.000000pt" viewBox="0 0 1024.000000 1024.000000"
 preserveAspectRatio="xMidYMid meet">

<g transform="translate(0.000000,1024.000000) scale(0.100000,-0.100000)"
fill="#000000" stroke="none">
<path d="M3990 9523 c-7 -16 -23 -57 -36 -93 -12 -36 -37 -103 -54 -150 -18
-47 -45 -121 -60 -165 -16 -44 -50 -136 -75 -205 -82 -222 -175 -487 -175
-500 0 -5 42 8 93 27 468 177 787 256 1134 282 116 9 554 7 603 -2 14 -3 52
-8 85 -11 147 -15 403 -66 585 -115 128 -34 394 -127 475 -166 17 -8 84 -39
149 -70 549 -255 1099 -746 1470 -1310 63 -95 157 -255 237 -403 24 -44 51
-60 185 -112 21 -8 151 -64 289 -123 312 -135 289 -128 280 -86 -12 56 -94
275 -157 424 -133 310 -341 669 -546 939 -354 467 -860 891 -1388 1162 -112
57 -309 144 -449 198 -118 45 -465 149 -585 176 -52 11 -104 23 -115 26 -71
18 -364 59 -515 73 -247 23 -724 1 -979 -44 -98 -17 -93 -19 -193 73 -136 124
-226 202 -235 202 -5 0 -16 -12 -23 -27z"/>
<path d="M3518 9015 c-50 -18 -447 -223 -533 -275 -672 -411 -1186 -929 -1530
-1545 -88 -158 -194 -381 -251 -529 -19 -50 -43 -111 -53 -136 -27 -65 -127
-387 -156 -505 -95 -374 -144 -885 -115 -1200 l10 -110 -57 -55 c-32 -30 -107
-100 -166 -154 -59 -54 -106 -103 -105 -108 5 -15 50 -38 453 -228 44 -21 152
-72 240 -115 88 -42 203 -97 255 -122 52 -24 105 -49 117 -55 13 -6 26 -8 29
-5 4 3 -9 64 -29 134 -59 211 -99 409 -127 628 -18 138 -24 529 -11 700 46
589 243 1188 553 1682 171 274 404 551 653 780 173 158 247 214 588 438 14 9
63 147 228 644 27 80 48 146 46 147 -1 1 -19 -4 -39 -11z"/>
<path d="M3790 7840 c-36 -11 -105 -39 -155 -64 -73 -36 -106 -60 -174 -128
-52 -53 -99 -113 -126 -159 -23 -41 -46 -73 -51 -73 -5 1 -23 5 -40 8 -44 10
-79 -21 -92 -81 -6 -27 -23 -103 -38 -171 l-27 -122 23 -25 c22 -24 22 -27 11
-99 -14 -87 -9 -103 44 -136 26 -16 35 -29 35 -49 0 -28 62 -187 80 -205 23
-23 10 -33 -40 -28 -34 3 -55 0 -66 -9 -17 -14 -80 -142 -105 -212 -9 -26 -18
-36 -29 -32 -94 28 -213 26 -306 -5 -101 -35 -187 -108 -153 -132 10 -7 11
-11 2 -14 -53 -22 -190 -116 -241 -167 -78 -76 -201 -257 -241 -356 -59 -141
-65 -192 -64 -556 0 -181 5 -363 10 -403 10 -82 8 -86 -50 -97 -44 -8 -92 -39
-120 -76 -15 -21 -19 -42 -18 -105 1 -142 65 -702 91 -795 15 -53 51 -102 90
-122 34 -17 68 -18 153 -1 24 5 27 3 27 -21 0 -14 7 -39 14 -54 15 -29 74 -85
96 -93 20 -6 -7 -77 -33 -88 -28 -10 -63 -49 -70 -75 -14 -58 -52 -175 -57
-175 -21 2 -220 322 -310 500 l-78 155 -114 44 c-62 25 -117 48 -123 52 -5 4
-41 19 -80 34 -38 15 -148 61 -242 102 -95 41 -176 73 -181 71 -5 -1 8 -57 30
-123 179 -557 490 -1098 868 -1510 630 -687 1424 -1136 2350 -1329 327 -68
754 -99 1060 -77 158 12 434 45 503 60 l38 9 112 -102 c178 -161 188 -171 204
-179 8 -5 15 -7 17 -5 1 1 26 64 55 138 29 74 59 150 67 167 7 18 32 83 55
145 22 62 51 138 64 168 12 30 39 102 60 160 35 100 47 132 109 294 14 38 24
71 22 73 -1 2 -86 -29 -187 -68 -219 -85 -327 -119 -514 -164 -216 -52 -509
-95 -646 -95 l-48 0 -22 73 c-48 167 -62 198 -119 279 -33 46 -80 112 -105
148 -24 36 -71 96 -105 134 -45 52 -60 77 -60 100 -1 50 -34 110 -95 169 -74
74 -162 132 -223 147 l-48 13 14 71 c30 157 -11 246 -113 246 -20 0 -22 5 -21
53 1 43 5 56 28 75 14 12 34 42 44 65 18 44 18 44 63 39 55 -5 95 9 115 40 16
24 45 131 90 333 15 66 34 149 42 185 54 229 65 329 43 387 -16 44 -58 81
-111 99 -37 12 -48 20 -44 32 3 10 8 29 12 44 l6 27 73 -52 c40 -29 103 -77
141 -108 68 -55 169 -125 334 -231 244 -159 289 -178 413 -178 115 0 152 17
250 114 39 40 113 100 163 135 95 64 178 140 275 252 92 105 191 240 226 307
30 59 33 71 33 156 0 89 1 93 30 121 17 16 30 34 30 42 0 7 13 27 29 45 15 18
33 42 39 54 9 16 27 24 84 33 132 22 173 51 218 155 10 25 24 46 30 46 24 0
50 65 50 124 0 56 2 61 39 93 22 18 45 49 51 68 l12 35 64 0 c69 0 104 20 104
60 0 11 4 20 9 20 12 0 21 -36 21 -82 0 -21 4 -38 9 -38 5 0 16 -3 24 -6 8 -3
22 3 32 12 15 15 16 29 10 96 l-6 78 55 0 55 0 3 -47 3 -48 66 -3 c62 -3 67
-1 73 20 11 41 6 58 -16 68 -16 7 4 8 67 5 292 -18 444 -27 552 -32 l123 -5
10 26 c13 35 13 87 0 121 l-10 27 -188 -5 c-103 -3 -275 -3 -384 0 l-196 6 -6
156 c-4 86 -10 163 -15 171 -10 19 -61 24 -81 7 -9 -6 -58 -61 -110 -122 -98
-115 -110 -126 -110 -102 0 9 -11 24 -24 35 -20 15 -54 21 -188 30 -289 21
-682 53 -719 59 -30 4 -41 1 -60 -18 -19 -19 -35 -24 -71 -24 l-48 0 0 70 c0
89 -13 134 -48 168 -30 28 -3 24 -567 102 -287 40 -319 46 -337 63 -10 8 -40
17 -67 20 -40 4 -51 1 -63 -16 -7 -11 -26 -24 -41 -27 -38 -10 -54 -37 -73
-124 -20 -92 -47 -130 -90 -130 -36 -1 -51 -15 -56 -51 -2 -21 -10 -26 -43
-30 -29 -4 -43 -11 -50 -27 -9 -21 -16 -23 -85 -23 -105 0 -105 1 -83 95 16
72 20 78 54 96 28 14 39 27 44 51 4 18 15 42 25 53 20 22 40 85 40 126 0 23 5
27 41 33 112 18 116 54 34 293 l-28 83 18 41 c24 51 44 59 154 59 60 0 92 4
99 13 6 7 14 35 17 63 6 40 3 57 -10 78 -15 23 -15 26 -2 26 21 0 57 47 57 74
0 21 -30 132 -78 286 -15 47 -39 98 -53 114 -25 28 -27 29 -71 18 l-46 -12
-83 86 c-46 47 -109 103 -139 124 -89 60 -237 126 -361 159 -110 29 -125 31
-295 30 -145 0 -191 -4 -244 -19z m-461 -1125 c14 -14 7 -90 -9 -100 -14 -9
-60 67 -60 98 0 25 3 27 28 21 15 -4 33 -12 41 -19z m2408 -625 c183 -6 340
-15 355 -21 15 -6 30 -20 34 -31 6 -21 -13 -105 -27 -113 -7 -5 -327 6 -650
21 l-137 7 -7 60 c-5 52 -4 63 11 74 21 16 12 16 421 3z m1820 -316 c-5 -6
-107 8 -107 15 0 3 24 33 53 65 l52 60 3 -68 c2 -38 1 -70 -1 -72z m-17 -64
c10 -19 8 -20 -40 -20 -43 0 -50 3 -50 20 0 17 7 20 40 20 29 0 42 -5 50 -20z
m-2798 -126 c15 -8 34 -14 43 -14 8 0 15 -8 15 -18 0 -29 21 -42 70 -42 25 0
54 -6 63 -13 16 -11 11 -17 -49 -57 -36 -25 -72 -49 -80 -55 -9 -6 -19 -4 -32
8 -10 9 -28 17 -38 17 -11 0 -33 14 -50 31 -16 18 -55 51 -87 75 -63 47 -62
48 13 75 47 17 87 15 132 -7z m3601 19 c-13 -2 -33 -2 -45 0 -13 2 -3 4 22 4
25 0 35 -2 23 -4z m-2071 -131 c21 -2 42 -10 49 -18 6 -8 30 -14 54 -14 23 0
56 -3 73 -6 l30 -6 -60 -96 c-33 -53 -68 -102 -79 -110 -10 -7 -57 -51 -104
-99 -47 -47 -87 -84 -89 -82 -2 2 -6 35 -10 72 -6 64 -5 69 14 74 23 6 25 14
8 31 -6 6 -14 56 -18 109 l-6 98 36 32 c21 20 41 30 50 26 8 -3 32 -8 52 -11z
m-663 -120 c16 -12 24 -34 30 -74 10 -76 -10 -98 -88 -98 -47 0 -52 2 -46 18
35 82 36 93 15 129 -11 19 -20 36 -20 39 0 13 90 2 109 -14z m-180 -162 c19 0
21 -3 12 -14 -6 -7 -8 -21 -5 -31 6 -16 17 -17 99 -11 76 5 95 4 105 -9 7 -8
18 -15 25 -15 9 0 15 -24 20 -72 6 -73 40 -284 51 -325 4 -15 1 -23 -14 -27
-11 -4 -49 -38 -86 -76 -36 -39 -73 -70 -80 -70 -8 0 -24 13 -36 29 -20 29
-120 91 -146 91 -6 0 -26 21 -43 48 -17 26 -44 62 -61 81 l-30 34 38 18 c39
19 72 70 72 109 0 11 9 24 20 30 21 11 40 66 40 116 0 17 -12 48 -26 69 l-25
38 23 -7 c13 -3 34 -6 47 -6z"/>
<path d="M8550 6316 c0 -2 23 -83 50 -178 60 -207 113 -461 134 -653 23 -199
37 -541 26 -633 -46 -394 -55 -452 -99 -623 -38 -144 -156 -484 -192 -548 -4
-9 -18 -38 -29 -66 -195 -461 -611 -1016 -994 -1326 -106 -86 -290 -222 -346
-256 -25 -15 -70 -47 -101 -70 -63 -49 -65 -54 -169 -352 -32 -91 -63 -177
-69 -191 -35 -83 -92 -252 -87 -257 13 -13 298 120 523 243 89 49 335 205 425
270 261 189 500 405 693 630 100 115 103 119 181 224 485 653 803 1504 865
2310 11 146 6 537 -7 601 -5 23 11 40 159 170 90 79 162 148 160 152 -3 5 -46
28 -96 51 -76 36 -994 489 -1019 503 -5 2 -8 2 -8 -1z"/>
</g>
</svg>
