<?xml version="1.0" encoding="UTF-8"?>
<!DOCTYPE svg PUBLIC "-//W3C//DTD SVG 1.1//EN" "http://www.w3.org/Graphics/SVG/1.1/DTD/svg11.dtd">
<svg xmlns="http://www.w3.org/2000/svg" width="128" height="128" viewBox="0 0 1707 1707" style="shape-rendering:geometricPrecision; text-rendering:geometricPrecision; image-rendering:optimizeQuality; fill-rule:evenodd; clip-rule:evenodd">
	<g fill="rgb(0,0,2)"><g><path d="M247 1066c-20,0 -30,-24 -16,-39l138 -138 0 -129 -143 0 -65 64c-21,21 -53,-10 -32,-32l71 -71c5,-4 10,-6 16,-6l153 0 0 -103 -94 -94c-21,-21 11,-53 32,-32l62 62c0,-56 36,-93 92,-93 7,-67 43,-127 96,-165l-37 -64c-15,-26 24,-49 39,-23l37 65c61,-28 131,-28 191,0l37 -65c15,-25 54,-3 39,23l-37 64c53,38 89,98 96,165 55,0 92,38 92,93l62 -62c21,-21 53,11 32,32l-94 94 0 103 153 0c6,0 11,2 16,6l71 71c21,22 -11,53 -32,32l-65 -64 -143 0 0 129 138 138c21,22 -11,53 -32,32l-115 -114c-34,141 -164,248 -315,246 -151,0 -278,-105 -312,-246l-115 114c-4,5 -10,7 -16,7zm445 317c-383,0 -692,-309 -692,-691 0,-383 309,-692 692,-692 382,0 691,309 691,692 0,177 -66,344 -187,472l119 119 47 -47c8,-8 23,-8 32,0l280 281c69,69 21,190 -78,190 -30,0 -58,-12 -79,-33l-281 -280c-8,-9 -8,-24 0,-32l47 -47 -119 -119c-128,121 -295,187 -472,187zm0 -1338c-357,0 -647,290 -647,647 0,357 290,646 647,646 356,0 646,-289 646,-646 0,-357 -289,-647 -646,-647zm593 1333l264 264c41,41 112,13 112,-46 0,-18 -7,-35 -19,-47l-264 -264 -93 93zm275 205c-5,0 -11,-2 -16,-7l-109 -109c-21,-21 11,-53 32,-32l109 109c15,15 4,39 -16,39zm-1145 -688c12,131 120,239 253,250l0 -644 -212 0 0 0c-23,0 -42,19 -42,41l0 327c0,9 1,18 1,26zm92 -440l369 0c-12,-93 -92,-163 -184,-163 -95,0 -174,72 -185,163zm207 690c142,-11 255,-131 255,-276l0 -326c0,-23 -19,-42 -42,-42l-213 0 0 644zm137 -248c-41,0 -74,-33 -74,-74 0,-40 33,-73 74,-73 40,0 73,33 73,73 0,41 -33,74 -73,74zm0 -102c-37,0 -37,56 0,56 37,0 37,-56 0,-56zm-320 102c-40,0 -73,-33 -73,-74 0,-40 33,-73 73,-73 41,0 74,33 74,73 0,41 -33,74 -74,74zm0 -102c-36,0 -36,56 0,56 37,0 37,-56 0,-56z"/></g></g>
	<g fill="rgb(77,77,77)"><g><path d="M851 795c-37,0 -37,56 0,56 37,0 37,-56 0,-56z"/></g></g>
	<g fill="rgb(77,77,77)"><g><path d="M531 851c37,0 37,-56 0,-56 -36,0 -36,56 0,56z"/></g></g>
	<g fill="rgb(237,50,55)"><g><path d="M531 750c41,0 74,33 74,73 0,41 -33,74 -74,74 -40,0 -73,-33 -73,-74 0,-40 33,-73 73,-73zm-75 -249l0 0zm-42 41l0 327c0,9 1,18 1,26 12,131 120,239 253,250l0 -644 -212 0c-23,0 -42,19 -42,41z"/></g></g>
	<g fill="rgb(237,50,55)"><g><path d="M714 501l0 644c142,-11 255,-131 255,-276l0 -326c0,-23 -19,-42 -42,-42l-213 0zm63 322c0,-40 33,-73 74,-73 40,0 73,33 73,73 0,41 -33,74 -73,74 -41,0 -74,-33 -74,-74z"/></g></g>
	<g fill="rgb(77,77,77)"><g><path d="M507 455l369 0c-12,-93 -92,-163 -184,-163 -95,0 -174,72 -185,163z"/></g></g>
	<g fill="rgb(217,242,242)"><g><path d="M1108 518l-94 94 0 103 153 0c6,0 11,2 16,6l71 71c21,22 -11,53 -32,32l-65 -64 -143 0 0 129 138 138c21,22 -11,53 -32,32l-115 -114c-34,141 -164,248 -315,246 -151,0 -278,-105 -312,-246l-115 114c-4,5 -10,7 -16,7 -20,0 -30,-24 -16,-39l138 -138 0 -129 -143 0 -65 64c-21,21 -53,-10 -32,-32l71 -71c5,-4 10,-6 16,-6l153 0 0 -103 -94 -94c-21,-21 11,-53 32,-32l62 62c0,-56 36,-93 92,-93 7,-67 43,-127 96,-165l-37 -64c-15,-26 24,-49 39,-23l37 65c61,-28 131,-28 191,0l37 -65c15,-25 54,-3 39,23l-37 64c53,38 89,98 96,165 55,0 92,38 92,93l62 -62c21,-21 53,11 32,32zm-416 820c356,0 646,-289 646,-646 0,-357 -289,-647 -646,-647 -357,0 -647,290 -647,647 0,357 290,646 647,646z"/></g></g>
	<g fill="rgb(181,93,36)"><g><path d="M1378 1285l-93 93 264 264c41,41 112,13 112,-46 0,-18 -7,-35 -19,-47l-264 -264zm57 182c-21,-21 11,-53 32,-32l109 109c15,15 4,39 -16,39 -5,0 -11,-2 -16,-7l-109 -109z"/></g></g>
</svg>
